<svg width="393" height="799" viewBox="0 0 393 799" fill="none" xmlns="http://www.w3.org/2000/svg">
<rect width="393" height="808" fill="#5A1515"/>
<line x1="31" y1="162" x2="234" y2="162" stroke="#F5F1F1" stroke-width="10"/>
<line x1="132" y1="56.9852" x2="134" y2="731.985" stroke="#F9EAEA" stroke-width="10"/>
<path d="M162.23 230.383C162.852 225.918 164.311 222.543 166.607 220.258C168.916 217.973 171.957 216.83 175.73 216.83C177.066 216.83 178.314 216.936 179.475 217.146C180.646 217.346 181.566 217.586 182.234 217.867L181.936 222.965H178.982L178.174 219.273C177.799 219.156 177.33 219.068 176.768 219.01C176.217 218.951 175.707 218.922 175.238 218.922C174.324 218.922 173.439 219.039 172.584 219.273C171.74 219.496 171.025 219.777 170.439 220.117C169.83 221.465 169.303 222.895 168.857 224.406C168.424 225.906 168.096 227.436 167.873 228.994L167.557 231.332C167.205 233.91 167.527 235.885 168.523 237.256C169.531 238.615 171.096 239.295 173.217 239.295C174.307 239.295 175.461 239.125 176.68 238.785C177.91 238.445 179.053 238.006 180.107 237.467L179.844 239.154C178.66 239.834 177.33 240.379 175.854 240.789C174.389 241.188 172.924 241.387 171.459 241.387C167.85 241.387 165.266 240.584 163.707 238.979C162.16 237.373 161.598 235.029 162.02 231.947L162.23 230.383ZM201.887 241L196.086 241.387L194.662 240.016L195.066 237.045C194.105 238.404 193.045 239.471 191.885 240.244C190.725 241.006 189.564 241.387 188.404 241.387C186.529 241.387 185.205 240.824 184.432 239.699C183.658 238.562 183.436 236.811 183.764 234.443L184.221 231.139C184.654 228.186 185.797 225.848 187.648 224.125C189.5 222.402 191.791 221.541 194.521 221.541C195.623 221.541 196.859 221.67 198.23 221.928C199.613 222.174 200.914 222.502 202.133 222.912L199.918 238.803L202.238 239.154L201.887 241ZM189.09 232.896C188.809 234.854 188.727 236.383 188.844 237.484C188.961 238.586 189.441 239.137 190.285 239.137C190.883 239.137 191.645 238.674 192.57 237.748C193.508 236.811 194.475 235.592 195.471 234.092L196.912 223.738C196.596 223.645 196.191 223.562 195.699 223.492C195.207 223.41 194.691 223.369 194.152 223.369C193.719 223.369 193.262 223.416 192.781 223.51C192.312 223.604 191.85 223.732 191.393 223.896C190.924 224.775 190.52 225.801 190.18 226.973C189.84 228.145 189.582 229.352 189.406 230.594L189.09 232.896ZM225.617 241L219.816 241.387L218.393 240.016L220.027 228.15C220.25 226.627 220.314 225.52 220.221 224.828C220.127 224.137 219.822 223.791 219.307 223.791C218.662 223.791 217.83 224.213 216.811 225.057C215.803 225.889 214.66 227.148 213.383 228.836L211.625 241.387L206.598 241L208.918 224.125L206.615 223.773L206.967 221.928L212.785 221.541L214.209 222.912L213.787 225.9C214.889 224.518 216.084 223.445 217.373 222.684C218.674 221.922 219.957 221.541 221.223 221.541C222.945 221.541 224.123 221.957 224.756 222.789C225.389 223.621 225.582 224.893 225.336 226.604L223.666 238.803L225.969 239.154L225.617 241ZM229.818 221.928H232.912L233.422 218.289L238.748 216.83L238.027 221.928H242.896L242.633 223.756H237.781L236.217 234.883C236.006 236.312 235.988 237.432 236.164 238.24C236.34 239.049 236.82 239.453 237.605 239.453C238.203 239.453 238.795 239.336 239.381 239.102C239.979 238.855 240.541 238.562 241.068 238.223V240.086C240.459 240.484 239.691 240.801 238.766 241.035C237.852 241.27 236.902 241.387 235.918 241.387C233.891 241.387 232.508 240.848 231.77 239.77C231.031 238.68 230.82 237.021 231.137 234.795L232.666 223.756H229.555L229.818 221.928ZM245.41 221.928L251.229 221.541L252.652 222.912L250.438 238.803L252.74 239.154L252.389 241L246.588 241.387L245.164 240.016L247.361 224.125L245.059 223.773L245.41 221.928ZM248.504 216.426C248.504 215.559 248.674 214.809 249.014 214.176C249.354 213.543 249.758 213.227 250.227 213.227C251.082 213.227 251.826 213.402 252.459 213.754C253.104 214.094 253.426 214.492 253.426 214.949C253.426 215.84 253.256 216.596 252.916 217.217C252.576 217.838 252.172 218.148 251.703 218.148C250.812 218.148 250.057 217.984 249.436 217.656C248.814 217.316 248.504 216.906 248.504 216.426ZM264.061 246.801L266.346 246.449L267.646 237.062C266.744 238.422 265.707 239.482 264.535 240.244C263.375 241.006 262.197 241.387 261.002 241.387C259.033 241.387 257.686 240.824 256.959 239.699C256.232 238.562 256.033 236.811 256.361 234.443L256.818 231.139C257.287 228.209 258.436 225.877 260.264 224.143C262.092 222.408 264.342 221.541 267.014 221.541C268.104 221.541 269.322 221.658 270.67 221.893C272.029 222.127 273.383 222.467 274.73 222.912L271.443 246.449L273.764 246.801L273.412 248.646H264.148L264.061 246.801ZM261.67 232.896C261.354 235.064 261.283 236.646 261.459 237.643C261.646 238.639 262.092 239.137 262.795 239.137C263.498 239.137 264.295 238.727 265.186 237.906C266.076 237.086 267.037 235.814 268.068 234.092L269.51 223.65C269.1 223.557 268.66 223.486 268.191 223.439C267.723 223.393 267.248 223.369 266.768 223.369C266.275 223.369 265.766 223.428 265.238 223.545C264.711 223.65 264.254 223.779 263.867 223.932C263.352 225.115 262.947 226.27 262.654 227.395C262.361 228.52 262.145 229.586 262.004 230.594L261.67 232.896ZM289.865 221.928L295.684 221.541L297.107 222.912L294.893 238.803L297.195 239.154L296.844 241L291.043 241.387L289.619 240.016L290.023 237.08C288.992 238.416 287.809 239.471 286.473 240.244C285.137 241.006 283.771 241.387 282.377 241.387C280.76 241.387 279.646 240.965 279.037 240.121C278.439 239.266 278.264 238 278.51 236.324L280.18 224.125L277.859 223.773L278.211 221.928L284.029 221.541L285.4 223.264L283.783 235.041C283.596 236.436 283.549 237.467 283.643 238.135C283.736 238.803 284.088 239.137 284.697 239.137C285.447 239.137 286.32 238.709 287.316 237.854C288.312 236.986 289.35 235.75 290.428 234.145L291.816 224.125L289.514 223.773L289.865 221.928ZM317.006 226.516C316.736 228.402 315.84 229.879 314.316 230.945C312.805 232 310.842 232.527 308.428 232.527C307.959 232.527 307.496 232.51 307.039 232.475C306.582 232.428 306.189 232.375 305.861 232.316L305.738 233.213C305.445 235.24 305.562 236.787 306.09 237.854C306.629 238.92 307.678 239.453 309.236 239.453C309.951 239.453 310.771 239.318 311.697 239.049C312.623 238.779 313.578 238.387 314.562 237.871V239.734C313.613 240.262 312.541 240.672 311.346 240.965C310.15 241.246 308.938 241.387 307.707 241.387C304.895 241.387 302.914 240.719 301.766 239.383C300.629 238.035 300.242 236.061 300.605 233.459L300.834 231.824C301.303 228.578 302.439 226.053 304.244 224.248C306.061 222.443 308.305 221.541 310.977 221.541C313.145 221.541 314.744 221.951 315.775 222.771C316.818 223.592 317.229 224.84 317.006 226.516ZM308.059 223.984C307.66 224.863 307.291 225.859 306.951 226.973C306.623 228.074 306.348 229.258 306.125 230.523C306.559 230.57 307.004 230.611 307.461 230.646C307.918 230.682 308.328 230.699 308.691 230.699C309.031 230.699 309.354 230.682 309.658 230.646C309.963 230.6 310.227 230.541 310.449 230.471C310.777 229.99 311.059 229.451 311.293 228.854C311.539 228.256 311.715 227.605 311.82 226.902C311.984 225.684 311.932 224.811 311.662 224.283C311.393 223.744 310.877 223.475 310.115 223.475C309.775 223.475 309.43 223.516 309.078 223.598C308.738 223.68 308.398 223.809 308.059 223.984ZM174.57 311.93L180.371 311.543L181.795 312.914L178.455 336.803L180.775 337.154L180.424 339L174.623 339.387L173.199 338.016L173.621 335.01C172.648 336.451 171.582 337.541 170.422 338.279C169.273 339.018 168.113 339.387 166.941 339.387C165.148 339.387 163.848 338.807 163.039 337.646C162.242 336.475 161.996 334.74 162.301 332.443L162.758 329.139C163.203 326.139 164.357 323.789 166.221 322.09C168.096 320.391 170.387 319.541 173.094 319.541C173.504 319.541 173.926 319.559 174.359 319.594C174.793 319.629 175.256 319.682 175.748 319.752L176.521 314.127L174.219 313.775L174.57 311.93ZM167.627 330.896C167.322 333.193 167.258 334.811 167.434 335.748C167.621 336.674 168.078 337.137 168.805 337.137C169.461 337.137 170.234 336.721 171.125 335.889C172.016 335.057 172.982 333.791 174.025 332.092L175.484 321.65C175.191 321.58 174.799 321.516 174.307 321.457C173.826 321.398 173.311 321.369 172.76 321.369C172.279 321.369 171.781 321.422 171.266 321.527C170.762 321.633 170.311 321.773 169.912 321.949C169.467 322.816 169.074 323.818 168.734 324.955C168.395 326.092 168.131 327.305 167.943 328.594L167.627 330.896ZM200.393 324.516C200.123 326.402 199.227 327.879 197.703 328.945C196.191 330 194.229 330.527 191.814 330.527C191.346 330.527 190.883 330.51 190.426 330.475C189.969 330.428 189.576 330.375 189.248 330.316L189.125 331.213C188.832 333.24 188.949 334.787 189.477 335.854C190.016 336.92 191.064 337.453 192.623 337.453C193.338 337.453 194.158 337.318 195.084 337.049C196.01 336.779 196.965 336.387 197.949 335.871V337.734C197 338.262 195.928 338.672 194.732 338.965C193.537 339.246 192.324 339.387 191.094 339.387C188.281 339.387 186.301 338.719 185.152 337.383C184.016 336.035 183.629 334.061 183.992 331.459L184.221 329.824C184.689 326.578 185.826 324.053 187.631 322.248C189.447 320.443 191.691 319.541 194.363 319.541C196.531 319.541 198.131 319.951 199.162 320.771C200.205 321.592 200.615 322.84 200.393 324.516ZM191.445 321.984C191.047 322.863 190.678 323.859 190.338 324.973C190.01 326.074 189.734 327.258 189.512 328.523C189.945 328.57 190.391 328.611 190.848 328.646C191.305 328.682 191.715 328.699 192.078 328.699C192.418 328.699 192.74 328.682 193.045 328.646C193.35 328.6 193.613 328.541 193.836 328.471C194.164 327.99 194.445 327.451 194.68 326.854C194.926 326.256 195.102 325.605 195.207 324.902C195.371 323.684 195.318 322.811 195.049 322.283C194.779 321.744 194.264 321.475 193.502 321.475C193.162 321.475 192.816 321.516 192.465 321.598C192.125 321.68 191.785 321.809 191.445 321.984ZM211.625 327.416C213.969 328.811 215.463 330.006 216.107 331.002C216.752 331.986 216.98 333.117 216.793 334.395C216.57 335.977 215.662 337.207 214.068 338.086C212.486 338.953 210.436 339.387 207.916 339.387C206.791 339.387 205.707 339.275 204.664 339.053C203.621 338.83 202.719 338.531 201.957 338.156L202.379 333.586H204.523L205.068 337.049C205.42 337.166 205.859 337.266 206.387 337.348C206.914 337.418 207.477 337.453 208.074 337.453C208.543 337.453 209.012 337.43 209.48 337.383C209.961 337.324 210.412 337.242 210.834 337.137C210.998 336.891 211.15 336.598 211.291 336.258C211.432 335.906 211.531 335.531 211.59 335.133C211.695 334.383 211.543 333.721 211.133 333.146C210.723 332.572 209.58 331.688 207.705 330.492C205.736 329.273 204.459 328.225 203.873 327.346C203.299 326.455 203.082 325.488 203.223 324.445C203.445 322.934 204.295 321.738 205.771 320.859C207.26 319.98 209.252 319.541 211.748 319.541C212.885 319.541 213.957 319.652 214.965 319.875C215.984 320.098 216.834 320.385 217.514 320.736L217.074 325.324H214.947L214.367 321.826C213.98 321.721 213.541 321.639 213.049 321.58C212.557 321.51 212.064 321.475 211.572 321.475C211.162 321.475 210.74 321.504 210.307 321.562C209.873 321.621 209.504 321.697 209.199 321.791C209.023 322.002 208.865 322.26 208.725 322.564C208.584 322.869 208.49 323.18 208.443 323.496C208.326 324.188 208.449 324.785 208.812 325.289C209.176 325.793 210.113 326.502 211.625 327.416ZM246.852 327.609L245.551 336.908H253.074L254.92 333.34L257.732 333.568L256.572 339H238.08L237.992 337.154L240.277 336.803L243.02 317.414L240.717 317.062L241.068 315.217H259.402L259.068 320.842H256.15L255.447 317.309H248.311L247.15 325.518H252.723L253.426 323.285L255.236 323.637L254.252 329.877L252.371 329.965V327.609H246.852ZM260.316 342.287C262.215 343.061 263.908 343.635 265.396 344.01C266.896 344.385 268.156 344.572 269.176 344.572C269.867 343.963 270.465 343.055 270.969 341.848C271.484 340.641 271.871 339.17 272.129 337.436L272.445 335.08C271.555 336.463 270.5 337.529 269.281 338.279C268.074 339.018 266.82 339.387 265.52 339.387C263.691 339.387 262.426 338.801 261.723 337.629C261.031 336.445 260.844 334.717 261.16 332.443L261.617 329.139C262.039 326.221 263.176 323.895 265.027 322.16C266.879 320.414 269.176 319.541 271.918 319.541C273.043 319.541 274.262 319.664 275.574 319.91C276.898 320.145 278.217 320.479 279.529 320.912L277.314 336.732C276.857 339.826 275.709 342.316 273.869 344.203C272.041 346.09 269.832 347.033 267.242 347.033C266.07 347.033 264.811 346.893 263.463 346.611C262.115 346.342 260.82 345.955 259.578 345.451L260.316 342.287ZM266.486 330.896C266.205 332.947 266.141 334.5 266.293 335.555C266.457 336.609 266.908 337.137 267.646 337.137C268.408 337.137 269.252 336.686 270.178 335.783C271.104 334.869 272 333.639 272.867 332.092L274.309 321.738C273.957 321.633 273.529 321.545 273.025 321.475C272.533 321.404 272.047 321.369 271.566 321.369C271.098 321.369 270.6 321.428 270.072 321.545C269.545 321.662 269.076 321.809 268.666 321.984C268.291 322.781 267.939 323.713 267.611 324.779C267.295 325.846 267.025 327.117 266.803 328.594L266.486 330.896ZM283.871 311.93L289.689 311.543L291.113 312.914L287.773 336.803L290.076 337.154L289.725 339L283.924 339.387L282.5 338.016L285.822 314.127L283.52 313.775L283.871 311.93ZM294.91 319.928L300.729 319.541L302.152 320.912L299.938 336.803L302.24 337.154L301.889 339L296.088 339.387L294.664 338.016L296.861 322.125L294.559 321.773L294.91 319.928ZM298.004 314.426C298.004 313.559 298.174 312.809 298.514 312.176C298.854 311.543 299.258 311.227 299.727 311.227C300.582 311.227 301.326 311.402 301.959 311.754C302.604 312.094 302.926 312.492 302.926 312.949C302.926 313.84 302.756 314.596 302.416 315.217C302.076 315.838 301.672 316.148 301.203 316.148C300.312 316.148 299.557 315.984 298.936 315.656C298.314 315.316 298.004 314.906 298.004 314.426ZM315.477 327.416C317.82 328.811 319.314 330.006 319.959 331.002C320.604 331.986 320.832 333.117 320.645 334.395C320.422 335.977 319.514 337.207 317.92 338.086C316.338 338.953 314.287 339.387 311.768 339.387C310.643 339.387 309.559 339.275 308.516 339.053C307.473 338.83 306.57 338.531 305.809 338.156L306.23 333.586H308.375L308.92 337.049C309.271 337.166 309.711 337.266 310.238 337.348C310.766 337.418 311.328 337.453 311.926 337.453C312.395 337.453 312.863 337.43 313.332 337.383C313.812 337.324 314.264 337.242 314.686 337.137C314.85 336.891 315.002 336.598 315.143 336.258C315.283 335.906 315.383 335.531 315.441 335.133C315.547 334.383 315.395 333.721 314.984 333.146C314.574 332.572 313.432 331.688 311.557 330.492C309.588 329.273 308.311 328.225 307.725 327.346C307.15 326.455 306.934 325.488 307.074 324.445C307.297 322.934 308.146 321.738 309.623 320.859C311.111 319.98 313.104 319.541 315.6 319.541C316.736 319.541 317.809 319.652 318.816 319.875C319.836 320.098 320.686 320.385 321.365 320.736L320.926 325.324H318.799L318.219 321.826C317.832 321.721 317.393 321.639 316.9 321.58C316.408 321.51 315.916 321.475 315.424 321.475C315.014 321.475 314.592 321.504 314.158 321.562C313.725 321.621 313.355 321.697 313.051 321.791C312.875 322.002 312.717 322.26 312.576 322.564C312.436 322.869 312.342 323.18 312.295 323.496C312.178 324.188 312.301 324.785 312.664 325.289C313.027 325.793 313.965 326.502 315.477 327.416ZM340.244 324.516C339.975 326.402 339.078 327.879 337.555 328.945C336.043 330 334.08 330.527 331.666 330.527C331.197 330.527 330.734 330.51 330.277 330.475C329.82 330.428 329.428 330.375 329.1 330.316L328.977 331.213C328.684 333.24 328.801 334.787 329.328 335.854C329.867 336.92 330.916 337.453 332.475 337.453C333.189 337.453 334.01 337.318 334.936 337.049C335.861 336.779 336.816 336.387 337.801 335.871V337.734C336.852 338.262 335.779 338.672 334.584 338.965C333.389 339.246 332.176 339.387 330.945 339.387C328.133 339.387 326.152 338.719 325.004 337.383C323.867 336.035 323.48 334.061 323.844 331.459L324.072 329.824C324.541 326.578 325.678 324.053 327.482 322.248C329.299 320.443 331.543 319.541 334.215 319.541C336.383 319.541 337.982 319.951 339.014 320.771C340.057 321.592 340.467 322.84 340.244 324.516ZM331.297 321.984C330.898 322.863 330.529 323.859 330.189 324.973C329.861 326.074 329.586 327.258 329.363 328.523C329.797 328.57 330.242 328.611 330.699 328.646C331.156 328.682 331.566 328.699 331.93 328.699C332.27 328.699 332.592 328.682 332.896 328.646C333.201 328.6 333.465 328.541 333.688 328.471C334.016 327.99 334.297 327.451 334.531 326.854C334.777 326.256 334.953 325.605 335.059 324.902C335.223 323.684 335.17 322.811 334.9 322.283C334.631 321.744 334.115 321.475 333.354 321.475C333.014 321.475 332.668 321.516 332.316 321.598C331.977 321.68 331.637 321.809 331.297 321.984ZM351.477 327.416C353.82 328.811 355.314 330.006 355.959 331.002C356.604 331.986 356.832 333.117 356.645 334.395C356.422 335.977 355.514 337.207 353.92 338.086C352.338 338.953 350.287 339.387 347.768 339.387C346.643 339.387 345.559 339.275 344.516 339.053C343.473 338.83 342.57 338.531 341.809 338.156L342.23 333.586H344.375L344.92 337.049C345.271 337.166 345.711 337.266 346.238 337.348C346.766 337.418 347.328 337.453 347.926 337.453C348.395 337.453 348.863 337.43 349.332 337.383C349.812 337.324 350.264 337.242 350.686 337.137C350.85 336.891 351.002 336.598 351.143 336.258C351.283 335.906 351.383 335.531 351.441 335.133C351.547 334.383 351.395 333.721 350.984 333.146C350.574 332.572 349.432 331.688 347.557 330.492C345.588 329.273 344.311 328.225 343.725 327.346C343.15 326.455 342.934 325.488 343.074 324.445C343.297 322.934 344.146 321.738 345.623 320.859C347.111 319.98 349.104 319.541 351.6 319.541C352.736 319.541 353.809 319.652 354.816 319.875C355.836 320.098 356.686 320.385 357.365 320.736L356.926 325.324H354.799L354.219 321.826C353.832 321.721 353.393 321.639 352.9 321.58C352.408 321.51 351.916 321.475 351.424 321.475C351.014 321.475 350.592 321.504 350.158 321.562C349.725 321.621 349.355 321.697 349.051 321.791C348.875 322.002 348.717 322.26 348.576 322.564C348.436 322.869 348.342 323.18 348.295 323.496C348.178 324.188 348.301 324.785 348.664 325.289C349.027 325.793 349.965 326.502 351.477 327.416ZM161.053 437L160.965 435.154L163.25 434.803L165.992 415.414L163.689 415.062L164.041 413.217H173.604C176.404 413.217 178.455 413.668 179.756 414.57C181.057 415.473 181.566 416.902 181.285 418.859C181.121 420.066 180.6 421.139 179.721 422.076C178.854 423.002 177.611 423.758 175.994 424.344V424.625C177.611 424.93 178.854 425.562 179.721 426.523C180.588 427.484 180.916 428.715 180.705 430.215C180.4 432.266 179.457 433.912 177.875 435.154C176.305 436.385 174.213 437 171.6 437H161.053ZM170.088 434.908C170.838 434.908 171.559 434.879 172.25 434.82C172.953 434.762 173.568 434.656 174.096 434.504C174.342 434.082 174.594 433.502 174.852 432.764C175.109 432.025 175.297 431.223 175.414 430.355C175.625 428.855 175.426 427.707 174.816 426.91C174.207 426.102 173.146 425.697 171.635 425.697H169.824L168.523 434.908H170.088ZM171.547 423.605C172.051 423.605 172.572 423.576 173.111 423.518C173.662 423.459 174.154 423.377 174.588 423.271C174.904 422.721 175.186 422.076 175.432 421.338C175.689 420.588 175.865 419.873 175.959 419.193C176.146 417.846 175.941 416.861 175.344 416.24C174.746 415.619 173.762 415.309 172.391 415.309H171.283L170.123 423.605H171.547ZM201.887 437L196.086 437.387L194.662 436.016L195.066 433.045C194.105 434.404 193.045 435.471 191.885 436.244C190.725 437.006 189.564 437.387 188.404 437.387C186.529 437.387 185.205 436.824 184.432 435.699C183.658 434.562 183.436 432.811 183.764 430.443L184.221 427.139C184.654 424.186 185.797 421.848 187.648 420.125C189.5 418.402 191.791 417.541 194.521 417.541C195.623 417.541 196.859 417.67 198.23 417.928C199.613 418.174 200.914 418.502 202.133 418.912L199.918 434.803L202.238 435.154L201.887 437ZM189.09 428.896C188.809 430.854 188.727 432.383 188.844 433.484C188.961 434.586 189.441 435.137 190.285 435.137C190.883 435.137 191.645 434.674 192.57 433.748C193.508 432.811 194.475 431.592 195.471 430.092L196.912 419.738C196.596 419.645 196.191 419.562 195.699 419.492C195.207 419.41 194.691 419.369 194.152 419.369C193.719 419.369 193.262 419.416 192.781 419.51C192.312 419.604 191.85 419.732 191.393 419.896C190.924 420.775 190.52 421.801 190.18 422.973C189.84 424.145 189.582 425.352 189.406 426.594L189.09 428.896ZM206.773 417.928L212.574 417.541L213.998 418.912L213.576 421.9C214.537 420.529 215.609 419.463 216.793 418.701C217.988 417.928 219.178 417.541 220.361 417.541C222.354 417.541 223.689 418.121 224.369 419.281C225.061 420.441 225.236 422.176 224.896 424.484L224.439 427.789C224.006 430.742 222.869 433.08 221.029 434.803C219.189 436.525 216.934 437.387 214.262 437.387C213.816 437.387 213.348 437.363 212.855 437.316C212.363 437.281 211.895 437.229 211.449 437.158L210.711 442.449L213.031 442.801L212.68 444.646H203.416L203.328 442.801L205.613 442.449L208.725 420.125L206.422 419.773L206.773 417.928ZM219.588 426.031C219.881 423.875 219.957 422.299 219.816 421.303C219.688 420.295 219.26 419.791 218.533 419.791C217.783 419.791 216.928 420.254 215.967 421.18C215.018 422.094 214.08 423.33 213.154 424.889L211.713 435.33C212.205 435.412 212.68 435.471 213.137 435.506C213.605 435.541 214.057 435.559 214.49 435.559C214.982 435.559 215.48 435.512 215.984 435.418C216.488 435.324 216.957 435.195 217.391 435.031C217.73 434.352 218.076 433.432 218.428 432.271C218.779 431.111 219.061 429.799 219.271 428.334L219.588 426.031ZM227.779 417.928H230.873L231.383 414.289L236.709 412.83L235.988 417.928H240.857L240.594 419.756H235.742L234.178 430.883C233.967 432.312 233.949 433.432 234.125 434.24C234.301 435.049 234.781 435.453 235.566 435.453C236.164 435.453 236.756 435.336 237.342 435.102C237.939 434.855 238.502 434.562 239.029 434.223V436.086C238.42 436.484 237.652 436.801 236.727 437.035C235.812 437.27 234.863 437.387 233.879 437.387C231.852 437.387 230.469 436.848 229.73 435.77C228.992 434.68 228.781 433.021 229.098 430.795L230.627 419.756H227.516L227.779 417.928ZM243.371 417.928L249.189 417.541L250.613 418.912L248.398 434.803L250.701 435.154L250.35 437L244.549 437.387L243.125 436.016L245.322 420.125L243.02 419.773L243.371 417.928ZM246.465 412.426C246.465 411.559 246.635 410.809 246.975 410.176C247.314 409.543 247.719 409.227 248.188 409.227C249.043 409.227 249.787 409.402 250.42 409.754C251.064 410.094 251.387 410.492 251.387 410.949C251.387 411.84 251.217 412.596 250.877 413.217C250.537 413.838 250.133 414.148 249.664 414.148C248.773 414.148 248.018 413.984 247.396 413.656C246.775 413.316 246.465 412.906 246.465 412.426ZM263.938 425.416C266.281 426.811 267.775 428.006 268.42 429.002C269.064 429.986 269.293 431.117 269.105 432.395C268.883 433.977 267.975 435.207 266.381 436.086C264.799 436.953 262.748 437.387 260.229 437.387C259.104 437.387 258.02 437.275 256.977 437.053C255.934 436.83 255.031 436.531 254.27 436.156L254.691 431.586H256.836L257.381 435.049C257.732 435.166 258.172 435.266 258.699 435.348C259.227 435.418 259.789 435.453 260.387 435.453C260.855 435.453 261.324 435.43 261.793 435.383C262.273 435.324 262.725 435.242 263.146 435.137C263.311 434.891 263.463 434.598 263.604 434.258C263.744 433.906 263.844 433.531 263.902 433.133C264.008 432.383 263.855 431.721 263.445 431.146C263.035 430.572 261.893 429.688 260.018 428.492C258.049 427.273 256.771 426.225 256.186 425.346C255.611 424.455 255.395 423.488 255.535 422.445C255.758 420.934 256.607 419.738 258.084 418.859C259.572 417.98 261.564 417.541 264.061 417.541C265.197 417.541 266.27 417.652 267.277 417.875C268.297 418.098 269.146 418.385 269.826 418.736L269.387 423.324H267.26L266.68 419.826C266.293 419.721 265.854 419.639 265.361 419.58C264.869 419.51 264.377 419.475 263.885 419.475C263.475 419.475 263.053 419.504 262.619 419.562C262.186 419.621 261.816 419.697 261.512 419.791C261.336 420.002 261.178 420.26 261.037 420.564C260.896 420.869 260.803 421.18 260.756 421.496C260.639 422.188 260.762 422.785 261.125 423.289C261.488 423.793 262.426 424.502 263.938 425.416ZM272.604 417.928H275.697L276.207 414.289L281.533 412.83L280.812 417.928H285.682L285.418 419.756H280.566L279.002 430.883C278.791 432.312 278.773 433.432 278.949 434.24C279.125 435.049 279.605 435.453 280.391 435.453C280.988 435.453 281.58 435.336 282.166 435.102C282.764 434.855 283.326 434.562 283.854 434.223V436.086C283.244 436.484 282.477 436.801 281.551 437.035C280.637 437.27 279.688 437.387 278.703 437.387C276.676 437.387 275.293 436.848 274.555 435.77C273.816 434.68 273.605 433.021 273.922 430.795L275.451 419.756H272.34L272.604 417.928ZM303.154 422.516C302.885 424.402 301.988 425.879 300.465 426.945C298.953 428 296.99 428.527 294.576 428.527C294.107 428.527 293.645 428.51 293.188 428.475C292.73 428.428 292.338 428.375 292.01 428.316L291.887 429.213C291.594 431.24 291.711 432.787 292.238 433.854C292.777 434.92 293.826 435.453 295.385 435.453C296.1 435.453 296.92 435.318 297.846 435.049C298.771 434.779 299.727 434.387 300.711 433.871V435.734C299.762 436.262 298.689 436.672 297.494 436.965C296.299 437.246 295.086 437.387 293.855 437.387C291.043 437.387 289.062 436.719 287.914 435.383C286.777 434.035 286.391 432.061 286.754 429.459L286.982 427.824C287.451 424.578 288.588 422.053 290.393 420.248C292.209 418.443 294.453 417.541 297.125 417.541C299.293 417.541 300.893 417.951 301.924 418.771C302.967 419.592 303.377 420.84 303.154 422.516ZM294.207 419.984C293.809 420.863 293.439 421.859 293.1 422.973C292.771 424.074 292.496 425.258 292.273 426.523C292.707 426.57 293.152 426.611 293.609 426.646C294.066 426.682 294.477 426.699 294.84 426.699C295.18 426.699 295.502 426.682 295.807 426.646C296.111 426.6 296.375 426.541 296.598 426.471C296.926 425.99 297.207 425.451 297.441 424.854C297.688 424.256 297.863 423.605 297.969 422.902C298.133 421.684 298.08 420.811 297.811 420.283C297.541 419.744 297.025 419.475 296.264 419.475C295.924 419.475 295.578 419.516 295.227 419.598C294.887 419.68 294.547 419.809 294.207 419.984ZM314.387 425.416C316.73 426.811 318.225 428.006 318.869 429.002C319.514 429.986 319.742 431.117 319.555 432.395C319.332 433.977 318.424 435.207 316.83 436.086C315.248 436.953 313.197 437.387 310.678 437.387C309.553 437.387 308.469 437.275 307.426 437.053C306.383 436.83 305.48 436.531 304.719 436.156L305.141 431.586H307.285L307.83 435.049C308.182 435.166 308.621 435.266 309.148 435.348C309.676 435.418 310.238 435.453 310.836 435.453C311.305 435.453 311.773 435.43 312.242 435.383C312.723 435.324 313.174 435.242 313.596 435.137C313.76 434.891 313.912 434.598 314.053 434.258C314.193 433.906 314.293 433.531 314.352 433.133C314.457 432.383 314.305 431.721 313.895 431.146C313.484 430.572 312.342 429.688 310.467 428.492C308.498 427.273 307.221 426.225 306.635 425.346C306.061 424.455 305.844 423.488 305.984 422.445C306.207 420.934 307.057 419.738 308.533 418.859C310.021 417.98 312.014 417.541 314.51 417.541C315.646 417.541 316.719 417.652 317.727 417.875C318.746 418.098 319.596 418.385 320.275 418.736L319.836 423.324H317.709L317.129 419.826C316.742 419.721 316.303 419.639 315.811 419.58C315.318 419.51 314.826 419.475 314.334 419.475C313.924 419.475 313.502 419.504 313.068 419.562C312.635 419.621 312.266 419.697 311.961 419.791C311.785 420.002 311.627 420.26 311.486 420.564C311.346 420.869 311.252 421.18 311.205 421.496C311.088 422.188 311.211 422.785 311.574 423.289C311.938 423.793 312.875 424.502 314.387 425.416ZM161.053 535L160.965 533.154L163.25 532.803L165.992 513.414L163.689 513.062L164.041 511.217H173.604C176.404 511.217 178.455 511.668 179.756 512.57C181.057 513.473 181.566 514.902 181.285 516.859C181.121 518.066 180.6 519.139 179.721 520.076C178.854 521.002 177.611 521.758 175.994 522.344V522.625C177.611 522.93 178.854 523.562 179.721 524.523C180.588 525.484 180.916 526.715 180.705 528.215C180.4 530.266 179.457 531.912 177.875 533.154C176.305 534.385 174.213 535 171.6 535H161.053ZM170.088 532.908C170.838 532.908 171.559 532.879 172.25 532.82C172.953 532.762 173.568 532.656 174.096 532.504C174.342 532.082 174.594 531.502 174.852 530.764C175.109 530.025 175.297 529.223 175.414 528.355C175.625 526.855 175.426 525.707 174.816 524.91C174.207 524.102 173.146 523.697 171.635 523.697H169.824L168.523 532.908H170.088ZM171.547 521.605C172.051 521.605 172.572 521.576 173.111 521.518C173.662 521.459 174.154 521.377 174.588 521.271C174.904 520.721 175.186 520.076 175.432 519.338C175.689 518.588 175.865 517.873 175.959 517.193C176.146 515.846 175.941 514.861 175.344 514.24C174.746 513.619 173.762 513.309 172.391 513.309H171.283L170.123 521.605H171.547ZM185.152 515.928L190.971 515.541L192.395 516.912L190.18 532.803L192.482 533.154L192.131 535L186.33 535.387L184.906 534.016L187.104 518.125L184.801 517.773L185.152 515.928ZM188.246 510.426C188.246 509.559 188.416 508.809 188.756 508.176C189.096 507.543 189.5 507.227 189.969 507.227C190.824 507.227 191.568 507.402 192.201 507.754C192.846 508.094 193.168 508.492 193.168 508.949C193.168 509.84 192.998 510.596 192.658 511.217C192.318 511.838 191.914 512.148 191.445 512.148C190.555 512.148 189.799 511.984 189.178 511.656C188.557 511.316 188.246 510.906 188.246 510.426ZM197.844 507.93L203.645 507.543L205.068 508.914L203.557 519.812C204.564 518.418 205.66 517.357 206.844 516.631C208.039 515.904 209.229 515.541 210.412 515.541C212.217 515.541 213.488 516.104 214.227 517.229C214.965 518.354 215.17 520.105 214.842 522.484L214.385 525.789C213.939 528.777 212.797 531.127 210.957 532.838C209.117 534.537 206.867 535.387 204.207 535.387C202.988 535.387 201.676 535.258 200.27 535C198.863 534.73 197.598 534.402 196.473 534.016L199.795 510.127L197.475 509.775L197.844 507.93ZM209.533 524.031C209.826 521.945 209.896 520.387 209.744 519.355C209.604 518.312 209.141 517.791 208.355 517.791C207.664 517.791 206.855 518.248 205.93 519.162C205.016 520.064 204.084 521.283 203.135 522.818L201.676 533.225C202.121 533.33 202.584 533.412 203.064 533.471C203.557 533.529 204.02 533.559 204.453 533.559C204.922 533.559 205.426 533.512 205.965 533.418C206.504 533.312 206.973 533.184 207.371 533.031C207.758 532.199 208.115 531.215 208.443 530.078C208.771 528.941 209.029 527.693 209.217 526.334L209.533 524.031ZM219.57 507.93L225.389 507.543L226.812 508.914L223.473 532.803L225.775 533.154L225.424 535L219.623 535.387L218.199 534.016L221.521 510.127L219.219 509.775L219.57 507.93ZM230.609 515.928L236.428 515.541L237.852 516.912L235.637 532.803L237.939 533.154L237.588 535L231.787 535.387L230.363 534.016L232.561 518.125L230.258 517.773L230.609 515.928ZM233.703 510.426C233.703 509.559 233.873 508.809 234.213 508.176C234.553 507.543 234.957 507.227 235.426 507.227C236.281 507.227 237.025 507.402 237.658 507.754C238.303 508.094 238.625 508.492 238.625 508.949C238.625 509.84 238.455 510.596 238.115 511.217C237.775 511.838 237.371 512.148 236.902 512.148C236.012 512.148 235.256 511.984 234.635 511.656C234.014 511.316 233.703 510.906 233.703 510.426ZM249.26 540.801L251.545 540.449L252.846 531.062C251.943 532.422 250.906 533.482 249.734 534.244C248.574 535.006 247.396 535.387 246.201 535.387C244.232 535.387 242.885 534.824 242.158 533.699C241.432 532.562 241.232 530.811 241.561 528.443L242.018 525.139C242.486 522.209 243.635 519.877 245.463 518.143C247.291 516.408 249.541 515.541 252.213 515.541C253.303 515.541 254.521 515.658 255.869 515.893C257.229 516.127 258.582 516.467 259.93 516.912L256.643 540.449L258.963 540.801L258.611 542.646H249.348L249.26 540.801ZM246.869 526.896C246.553 529.064 246.482 530.646 246.658 531.643C246.846 532.639 247.291 533.137 247.994 533.137C248.697 533.137 249.494 532.727 250.385 531.906C251.275 531.086 252.236 529.814 253.268 528.092L254.709 517.65C254.299 517.557 253.859 517.486 253.391 517.439C252.922 517.393 252.447 517.369 251.967 517.369C251.475 517.369 250.965 517.428 250.438 517.545C249.91 517.65 249.453 517.779 249.066 517.932C248.551 519.115 248.146 520.27 247.854 521.395C247.561 522.52 247.344 523.586 247.203 524.594L246.869 526.896ZM275.064 515.928L280.883 515.541L282.307 516.912L280.092 532.803L282.395 533.154L282.043 535L276.242 535.387L274.818 534.016L275.223 531.08C274.191 532.416 273.008 533.471 271.672 534.244C270.336 535.006 268.971 535.387 267.576 535.387C265.959 535.387 264.846 534.965 264.236 534.121C263.639 533.266 263.463 532 263.709 530.324L265.379 518.125L263.059 517.773L263.41 515.928L269.229 515.541L270.6 517.264L268.982 529.041C268.795 530.436 268.748 531.467 268.842 532.135C268.936 532.803 269.287 533.137 269.896 533.137C270.646 533.137 271.52 532.709 272.516 531.854C273.512 530.986 274.549 529.75 275.627 528.145L277.016 518.125L274.713 517.773L275.064 515.928ZM302.205 520.516C301.936 522.402 301.039 523.879 299.516 524.945C298.004 526 296.041 526.527 293.627 526.527C293.158 526.527 292.695 526.51 292.238 526.475C291.781 526.428 291.389 526.375 291.061 526.316L290.938 527.213C290.645 529.24 290.762 530.787 291.289 531.854C291.828 532.92 292.877 533.453 294.436 533.453C295.15 533.453 295.971 533.318 296.896 533.049C297.822 532.779 298.777 532.387 299.762 531.871V533.734C298.812 534.262 297.74 534.672 296.545 534.965C295.35 535.246 294.137 535.387 292.906 535.387C290.094 535.387 288.113 534.719 286.965 533.383C285.828 532.035 285.441 530.061 285.805 527.459L286.033 525.824C286.502 522.578 287.639 520.053 289.443 518.248C291.26 516.443 293.504 515.541 296.176 515.541C298.344 515.541 299.943 515.951 300.975 516.771C302.018 517.592 302.428 518.84 302.205 520.516ZM293.258 517.984C292.859 518.863 292.49 519.859 292.15 520.973C291.822 522.074 291.547 523.258 291.324 524.523C291.758 524.57 292.203 524.611 292.66 524.646C293.117 524.682 293.527 524.699 293.891 524.699C294.23 524.699 294.553 524.682 294.857 524.646C295.162 524.6 295.426 524.541 295.648 524.471C295.977 523.99 296.258 523.451 296.492 522.854C296.738 522.256 296.914 521.605 297.02 520.902C297.184 519.684 297.131 518.811 296.861 518.283C296.592 517.744 296.076 517.475 295.314 517.475C294.975 517.475 294.629 517.516 294.277 517.598C293.938 517.68 293.598 517.809 293.258 517.984ZM313.438 523.416C315.781 524.811 317.275 526.006 317.92 527.002C318.564 527.986 318.793 529.117 318.605 530.395C318.383 531.977 317.475 533.207 315.881 534.086C314.299 534.953 312.248 535.387 309.729 535.387C308.604 535.387 307.52 535.275 306.477 535.053C305.434 534.83 304.531 534.531 303.77 534.156L304.191 529.586H306.336L306.881 533.049C307.232 533.166 307.672 533.266 308.199 533.348C308.727 533.418 309.289 533.453 309.887 533.453C310.355 533.453 310.824 533.43 311.293 533.383C311.773 533.324 312.225 533.242 312.646 533.137C312.811 532.891 312.963 532.598 313.104 532.258C313.244 531.906 313.344 531.531 313.402 531.133C313.508 530.383 313.355 529.721 312.945 529.146C312.535 528.572 311.393 527.688 309.518 526.492C307.549 525.273 306.271 524.225 305.686 523.346C305.111 522.455 304.895 521.488 305.035 520.445C305.258 518.934 306.107 517.738 307.584 516.859C309.072 515.98 311.064 515.541 313.561 515.541C314.697 515.541 315.77 515.652 316.777 515.875C317.797 516.098 318.646 516.385 319.326 516.736L318.887 521.324H316.76L316.18 517.826C315.793 517.721 315.354 517.639 314.861 517.58C314.369 517.51 313.877 517.475 313.385 517.475C312.975 517.475 312.553 517.504 312.119 517.562C311.686 517.621 311.316 517.697 311.012 517.791C310.836 518.002 310.678 518.26 310.537 518.564C310.396 518.869 310.303 519.18 310.256 519.496C310.139 520.188 310.262 520.785 310.625 521.289C310.988 521.793 311.926 522.502 313.438 523.416ZM174.57 605.93L180.371 605.543L181.795 606.914L178.455 630.803L180.775 631.154L180.424 633L174.623 633.387L173.199 632.016L173.621 629.01C172.648 630.451 171.582 631.541 170.422 632.279C169.273 633.018 168.113 633.387 166.941 633.387C165.148 633.387 163.848 632.807 163.039 631.646C162.242 630.475 161.996 628.74 162.301 626.443L162.758 623.139C163.203 620.139 164.357 617.789 166.221 616.09C168.096 614.391 170.387 613.541 173.094 613.541C173.504 613.541 173.926 613.559 174.359 613.594C174.793 613.629 175.256 613.682 175.748 613.752L176.521 608.127L174.219 607.775L174.57 605.93ZM167.627 624.896C167.322 627.193 167.258 628.811 167.434 629.748C167.621 630.674 168.078 631.137 168.805 631.137C169.461 631.137 170.234 630.721 171.125 629.889C172.016 629.057 172.982 627.791 174.025 626.092L175.484 615.65C175.191 615.58 174.799 615.516 174.307 615.457C173.826 615.398 173.311 615.369 172.76 615.369C172.279 615.369 171.781 615.422 171.266 615.527C170.762 615.633 170.311 615.773 169.912 615.949C169.467 616.816 169.074 617.818 168.734 618.955C168.395 620.092 168.131 621.305 167.943 622.594L167.627 624.896ZM196.877 613.928L202.695 613.541L204.119 614.912L201.904 630.803L204.207 631.154L203.855 633L198.055 633.387L196.631 632.016L197.035 629.08C196.004 630.416 194.82 631.471 193.484 632.244C192.148 633.006 190.783 633.387 189.389 633.387C187.771 633.387 186.658 632.965 186.049 632.121C185.451 631.266 185.275 630 185.521 628.324L187.191 616.125L184.871 615.773L185.223 613.928L191.041 613.541L192.412 615.264L190.795 627.041C190.607 628.436 190.561 629.467 190.654 630.135C190.748 630.803 191.1 631.137 191.709 631.137C192.459 631.137 193.332 630.709 194.328 629.854C195.324 628.986 196.361 627.75 197.439 626.145L198.828 616.125L196.525 615.773L196.877 613.928ZM229.572 631.154L231.857 630.803L234.617 611.309H230.627L229.309 614.666H226.707L227.691 609.217H247.238L246.764 614.666H244.32L243.793 611.309H239.891L237.131 630.803L239.451 631.154L239.1 633H229.66L229.572 631.154ZM254.199 633.387C251.469 633.387 249.5 632.742 248.293 631.453C247.098 630.152 246.688 628.154 247.062 625.459L247.291 623.824C247.771 620.555 248.984 618.023 250.93 616.23C252.887 614.438 255.254 613.541 258.031 613.541C260.832 613.541 262.812 614.209 263.973 615.545C265.133 616.881 265.525 618.908 265.15 621.627L264.922 623.297C264.477 626.32 263.246 628.758 261.23 630.609C259.215 632.461 256.871 633.387 254.199 633.387ZM260.018 621.891C260.311 619.816 260.258 618.229 259.859 617.127C259.473 616.025 258.676 615.475 257.469 615.475C257.047 615.475 256.607 615.521 256.15 615.615C255.693 615.697 255.26 615.82 254.85 615.984C254.264 617.016 253.766 618.146 253.355 619.377C252.957 620.607 252.664 621.855 252.477 623.121L252.178 625.213C251.896 627.311 251.99 628.875 252.459 629.906C252.939 630.938 253.707 631.453 254.762 631.453C255.195 631.453 255.641 631.406 256.098 631.312C256.566 631.219 256.994 631.09 257.381 630.926C257.955 630.035 258.447 628.98 258.857 627.762C259.268 626.531 259.561 625.271 259.736 623.982L260.018 621.891ZM266.75 636.287C268.648 637.061 270.342 637.635 271.83 638.01C273.33 638.385 274.59 638.572 275.609 638.572C276.301 637.963 276.898 637.055 277.402 635.848C277.918 634.641 278.305 633.17 278.562 631.436L278.879 629.08C277.988 630.463 276.934 631.529 275.715 632.279C274.508 633.018 273.254 633.387 271.953 633.387C270.125 633.387 268.859 632.801 268.156 631.629C267.465 630.445 267.277 628.717 267.594 626.443L268.051 623.139C268.473 620.221 269.609 617.895 271.461 616.16C273.312 614.414 275.609 613.541 278.352 613.541C279.477 613.541 280.695 613.664 282.008 613.91C283.332 614.145 284.65 614.479 285.963 614.912L283.748 630.732C283.291 633.826 282.143 636.316 280.303 638.203C278.475 640.09 276.266 641.033 273.676 641.033C272.504 641.033 271.244 640.893 269.896 640.611C268.549 640.342 267.254 639.955 266.012 639.451L266.75 636.287ZM272.92 624.896C272.639 626.947 272.574 628.5 272.727 629.555C272.891 630.609 273.342 631.137 274.08 631.137C274.842 631.137 275.686 630.686 276.611 629.783C277.537 628.869 278.434 627.639 279.301 626.092L280.742 615.738C280.391 615.633 279.963 615.545 279.459 615.475C278.967 615.404 278.48 615.369 278 615.369C277.531 615.369 277.033 615.428 276.506 615.545C275.979 615.662 275.51 615.809 275.1 615.984C274.725 616.781 274.373 617.713 274.045 618.779C273.729 619.846 273.459 621.117 273.236 622.594L272.92 624.896ZM295.262 633.387C292.531 633.387 290.562 632.742 289.355 631.453C288.16 630.152 287.75 628.154 288.125 625.459L288.354 623.824C288.834 620.555 290.047 618.023 291.992 616.23C293.949 614.438 296.316 613.541 299.094 613.541C301.895 613.541 303.875 614.209 305.035 615.545C306.195 616.881 306.588 618.908 306.213 621.627L305.984 623.297C305.539 626.32 304.309 628.758 302.293 630.609C300.277 632.461 297.934 633.387 295.262 633.387ZM301.08 621.891C301.373 619.816 301.32 618.229 300.922 617.127C300.535 616.025 299.738 615.475 298.531 615.475C298.109 615.475 297.67 615.521 297.213 615.615C296.756 615.697 296.322 615.82 295.912 615.984C295.326 617.016 294.828 618.146 294.418 619.377C294.02 620.607 293.727 621.855 293.539 623.121L293.24 625.213C292.959 627.311 293.053 628.875 293.521 629.906C294.002 630.938 294.77 631.453 295.824 631.453C296.258 631.453 296.703 631.406 297.16 631.312C297.629 631.219 298.057 631.09 298.443 630.926C299.018 630.035 299.51 628.98 299.92 627.762C300.33 626.531 300.623 625.271 300.799 623.982L301.08 621.891Z" fill="white"/>
</svg>
